<?xml version="1.0" standalone="no"?>
<!DOCTYPE svg PUBLIC "-//W3C//DTD SVG 20010904//EN"
 "http://www.w3.org/TR/2001/REC-SVG-20010904/DTD/svg10.dtd">
<svg version="1.0" xmlns="http://www.w3.org/2000/svg"
 width="1618.000000pt" height="677.000000pt" viewBox="0 0 1618.000000 677.000000"
 preserveAspectRatio="xMidYMid meet">
<metadata>
Created by potrace 1.16, written by Peter Selinger 2001-2019
</metadata>
<g transform="translate(0.000000,677.000000) scale(0.100000,-0.100000)"
fill="#000000" stroke="none">
<path d="M6288 4630 c-202 -34 -329 -132 -381 -295 -18 -55 -37 -200 -37 -282
l0 -52 -102 -3 -103 -3 -3 -112 -3 -113 106 0 105 0 2 -707 3 -708 138 -3 137
-3 0 711 0 710 170 0 170 0 0 115 0 115 -170 0 -170 0 0 93 c1 164 29 232 119
280 38 21 71 30 126 34 l75 6 0 113 0 114 -67 -1 c-38 -1 -89 -5 -115 -9z"/>
<path d="M7588 4601 c-97 -62 -115 -184 -40 -273 27 -32 93 -67 127 -68 78 0
164 64 184 137 45 167 -126 296 -271 204z"/>
<path d="M6810 3460 l0 -1110 135 0 135 0 0 1110 0 1110 -135 0 -135 0 0
-1110z"/>
<path d="M16070 4525 c-11 -13 -83 -15 -589 -11 -317 3 -593 6 -615 7 -32 2
-43 -2 -63 -26 -21 -23 -24 -36 -20 -71 l4 -42 -299 -298 c-254 -254 -301
-297 -311 -284 -22 28 -61 50 -90 50 -37 0 -82 -27 -96 -57 l-11 -23 -657 0
-658 0 103 103 103 103 50 0 c44 -1 54 3 75 27 13 15 24 39 24 53 l0 24 385 0
c372 0 386 -1 405 -20 27 -27 66 -26 85 4 36 54 -31 112 -79 67 -22 -21 -28
-21 -418 -21 -382 0 -395 1 -413 20 -27 30 -89 27 -121 -5 -21 -21 -25 -34
-23 -71 l3 -45 -119 -119 -120 -120 -225 0 -225 0 225 225 224 224 40 -5 c50
-7 91 20 101 66 l7 30 354 0 c342 0 356 -1 383 -21 24 -17 31 -19 54 -8 40 18
46 57 14 85 -30 25 -62 22 -80 -7 -11 -18 -31 -19 -372 -19 l-360 0 -24 25
c-63 67 -183 -5 -151 -90 7 -19 -23 -53 -233 -263 l-242 -242 -1234 0 -1233 0
-58 53 c-232 209 -626 257 -955 115 -233 -101 -415 -312 -482 -558 -25 -92
-25 -329 1 -420 92 -328 362 -564 710 -620 96 -16 310 -8 391 15 129 35 279
120 360 204 l39 41 1267 0 c1247 0 1267 0 1272 -19 6 -25 64 -61 97 -61 14 1
36 7 50 15 25 14 28 11 226 -187 l201 -200 -4 -42 c-4 -35 -1 -48 19 -71 l24
-28 277 2 c243 2 278 0 283 -13 8 -21 67 -21 84 -1 10 13 53 15 266 15 219 0
254 2 254 15 0 13 -34 15 -250 15 l-249 0 -25 25 c-14 14 -30 25 -36 25 -6 0
-22 -11 -36 -25 l-25 -25 -207 0 -207 0 0 55 0 55 302 0 302 0 25 -25 c31 -31
41 -31 71 0 30 29 31 35 4 69 -25 31 -49 33 -74 6 -18 -20 -28 -21 -396 -19
l-376 1 -202 202 c-163 163 -201 206 -195 222 4 10 81 94 173 187 l166 167
420 0 c409 0 421 -1 433 -20 14 -22 61 -27 80 -8 18 18 14 63 -6 81 -25 22
-48 21 -72 -3 -19 -19 -33 -20 -422 -20 l-403 0 100 100 100 100 245 0 c233 0
246 -1 263 -20 38 -45 108 1 86 57 -13 35 -46 47 -75 28 -13 -8 -24 -20 -24
-25 0 -6 -88 -10 -232 -10 l-233 0 43 43 c39 38 47 42 93 42 43 0 54 4 75 28
13 15 24 37 24 48 0 19 12 19 530 19 517 0 531 -1 550 -20 24 -24 53 -26 74
-4 21 21 20 57 -2 77 -25 22 -48 21 -72 -3 -19 -19 -33 -20 -551 -20 l-532 0
-23 25 c-32 35 -95 35 -130 0 -21 -21 -25 -34 -23 -71 l3 -45 -329 -329 -329
-330 -31 30 c-26 25 -39 30 -81 30 l-50 0 -137 138 c-75 76 -137 146 -137 156
0 10 -13 31 -29 47 -48 48 -139 35 -171 -25 l-13 -26 -950 0 c-861 0 -949 1
-943 16 3 9 6 42 6 75 l0 59 1019 0 c1006 0 1020 0 1026 -20 10 -31 59 -60
103 -60 47 0 84 26 102 72 8 20 113 133 264 286 l251 252 681 0 682 0 40 -40
c29 -30 48 -40 71 -40 50 0 90 26 111 73 19 43 260 293 260 269 0 -9 165 -12
763 -12 751 0 764 0 782 -20 23 -25 57 -26 78 -2 21 23 21 41 1 70 -19 27 -55
28 -79 2 -18 -20 -31 -20 -779 -20 l-761 0 110 110 110 110 562 0 c550 0 563
0 583 -20 36 -36 90 -16 90 35 0 51 -61 73 -95 35 -18 -20 -31 -20 -564 -20
l-545 0 57 58 c54 55 58 57 101 54 60 -5 96 28 96 88 l0 40 544 0 c479 0 545
-2 556 -16 26 -30 50 -36 76 -19 26 17 33 62 12 83 -17 17 -63 15 -78 -3z
m-4097 -876 l-61 -62 -30 34 c-26 29 -37 34 -77 34 -41 0 -51 -4 -81 -37 l-34
-38 -968 0 -968 0 -17 33 c-9 17 -26 47 -37 65 l-22 32 1178 0 1179 0 -62 -61z
m344 -166 c-195 -196 -229 -226 -238 -210 -13 23 -62 47 -94 47 -35 0 -81 -27
-94 -57 l-11 -23 -1018 0 -1018 0 -13 87 c-8 48 -22 111 -32 140 l-18 53 959
0 c946 0 959 0 965 -20 25 -80 176 -78 200 3 4 12 48 64 98 115 l92 92 225 0
225 0 -228 -227z m-3204 -198 c125 -71 227 -133 227 -136 0 -7 -535 -319 -545
-319 -3 0 -5 144 -5 320 l0 320 48 -27 c26 -16 150 -86 275 -158z m2640 -350
c18 -22 39 -36 61 -41 44 -8 67 0 101 33 l26 27 121 -122 c116 -115 121 -122
110 -146 l-12 -26 -1235 0 c-679 0 -1235 3 -1235 6 0 3 8 18 19 32 31 45 67
123 92 200 l23 72 950 0 951 0 28 -35z"/>
<path d="M3170 3395 l0 -1045 135 0 135 0 0 1045 0 1045 -135 0 -135 0 0
-1045z"/>
<path d="M4522 4000 c-129 -34 -244 -105 -307 -187 l-34 -45 -3 114 -3 113
-135 0 -135 0 0 -820 0 -820 138 -3 137 -3 0 509 c0 474 1 514 20 586 11 43
32 100 46 127 32 58 114 138 172 168 55 28 154 51 223 51 229 0 383 -113 446
-327 15 -50 17 -128 21 -585 l3 -528 135 0 135 0 -4 558 c-5 625 -5 632 -77
778 -72 147 -189 247 -350 299 -116 38 -317 45 -428 15z"/>
<path d="M7550 3175 l0 -825 135 0 135 0 -2 823 -3 822 -132 3 -133 3 0 -826z"/>
</g>
</svg> 